<?xml version="1.0" standalone="no"?>
<!DOCTYPE svg PUBLIC "-//W3C//DTD SVG 20010904//EN"
 "http://www.w3.org/TR/2001/REC-SVG-20010904/DTD/svg10.dtd">
<svg version="1.0" xmlns="http://www.w3.org/2000/svg"
 width="800.000000pt" height="800.000000pt" viewBox="0 0 800.000000 800.000000"
 preserveAspectRatio="xMidYMid meet">

<g transform="translate(0.000000,800.000000) scale(0.100000,-0.100000)"
fill="#000000" stroke="none">
<path d="M1675 6141 c-17 -10 -40 -31 -50 -47 -20 -28 -20 -57 -20 -1586 0
-1556 0 -1557 21 -1584 11 -15 33 -37 48 -48 27 -21 39 -21 824 -26 777 -5
798 -6 832 -25 48 -28 83 -97 76 -150 -3 -22 -29 -93 -59 -157 -56 -123 -61
-152 -27 -183 16 -14 86 -16 681 -15 595 0 665 2 681 17 34 30 31 50 -28 181
-63 142 -70 185 -37 248 11 22 35 48 54 59 33 19 57 20 831 25 789 5 797 5
825 26 15 11 38 36 51 54 l22 33 0 1541 c0 1447 -1 1543 -18 1576 -9 19 -32
45 -51 57 l-34 23 -2296 0 c-2219 0 -2297 -1 -2326 -19z m4529 -1491 c2 -663
2 -1217 -1 -1232 l-5 -28 -2199 0 -2199 0 0 1235 0 1235 2200 -2 2201 -3 3
-1205z m-2133 -1407 c40 -24 73 -94 65 -137 -28 -150 -232 -153 -265 -4 -13
59 21 126 74 148 34 15 96 11 126 -7z m-391 -118 l0 -125 -311 0 c-359 0 -368
2 -401 77 -17 40 -18 49 -6 86 9 27 24 49 47 64 34 23 38 23 352 23 l319 0 0
-125z m1311 102 c71 -48 74 -150 6 -199 -32 -23 -36 -23 -354 -26 l-323 -3 0
126 0 125 319 0 c314 0 318 0 352 -23z"/>
</g>
</svg>
