<?xml version="1.0" standalone="no"?>
<!DOCTYPE svg PUBLIC "-//W3C//DTD SVG 20010904//EN"
 "http://www.w3.org/TR/2001/REC-SVG-20010904/DTD/svg10.dtd">
<svg version="1.0" xmlns="http://www.w3.org/2000/svg"
 width="720.000000pt" height="720.000000pt" viewBox="0 0 720.000000 720.000000"
 preserveAspectRatio="xMidYMid meet">

<g transform="translate(0.000000,720.000000) scale(0.100000,-0.100000)"
fill="#000000" stroke="none">
<path d="M3549 7196 c-3 -3 -57 -9 -120 -12 -116 -5 -179 -10 -259 -20 -25 -3
-58 -6 -75 -7 -16 -2 -36 -6 -43 -10 -7 -5 -21 -6 -31 -2 -11 3 -22 1 -26 -4
-3 -6 -16 -11 -28 -11 -29 0 -82 -7 -82 -10 0 -3 -23 -7 -60 -13 -11 -2 -26
-6 -33 -11 -6 -4 -16 -5 -21 -1 -5 3 -13 0 -16 -6 -4 -5 -13 -8 -21 -5 -7 3
-16 1 -20 -5 -3 -6 -12 -8 -20 -5 -7 3 -16 1 -19 -5 -4 -5 -12 -9 -18 -8 -7 1
-25 -3 -41 -10 -16 -6 -31 -9 -34 -6 -3 2 -11 0 -19 -6 -7 -6 -13 -8 -13 -4 0
4 -6 3 -12 -2 -12 -10 -133 -52 -161 -57 -7 -1 -21 -7 -32 -13 -16 -8 -83 -33
-105 -38 -8 -2 -125 -57 -225 -106 -49 -24 -90 -41 -90 -39 0 3 -7 -1 -15 -8
-8 -7 -74 -47 -145 -90 -273 -162 -474 -319 -705 -551 -180 -180 -321 -352
-449 -548 -50 -76 -94 -143 -98 -148 -5 -6 -28 -48 -52 -95 -24 -47 -50 -92
-57 -101 -8 -8 -14 -20 -14 -26 0 -5 -19 -48 -42 -94 -23 -46 -42 -89 -44 -95
-1 -6 -12 -33 -24 -60 -13 -27 -25 -57 -27 -67 -1 -10 -8 -28 -15 -40 -7 -12
-13 -27 -14 -34 -5 -28 -47 -149 -57 -160 -5 -7 -6 -13 -2 -13 4 0 2 -6 -4
-13 -6 -8 -8 -16 -6 -19 3 -3 0 -18 -6 -34 -7 -16 -11 -34 -10 -41 1 -6 -3
-14 -8 -18 -6 -3 -8 -12 -5 -19 3 -8 1 -17 -5 -20 -6 -4 -8 -13 -5 -20 3 -8 1
-17 -5 -20 -6 -4 -8 -13 -5 -20 3 -8 0 -17 -5 -21 -6 -3 -9 -11 -5 -16 3 -5 0
-16 -6 -24 -6 -8 -9 -19 -5 -25 4 -6 1 -17 -5 -25 -6 -8 -9 -19 -5 -25 4 -6 2
-17 -4 -24 -6 -7 -9 -21 -5 -29 3 -9 2 -22 -2 -29 -5 -7 -10 -24 -11 -38 -1
-14 -4 -43 -7 -65 -16 -115 -20 -155 -32 -335 -11 -165 -11 -197 10 -535 10
-175 77 -502 146 -720 404 -1271 1482 -2217 2795 -2455 192 -35 399 -52 635
-53 84 -1 315 15 430 29 25 3 59 6 75 7 17 2 36 6 43 10 7 5 21 6 31 2 11 -3
22 -1 26 4 3 6 16 11 28 11 29 0 82 7 82 10 0 3 23 7 60 13 11 2 26 6 33 11 6
4 16 5 21 1 5 -3 13 0 16 6 4 5 13 8 21 5 7 -3 16 -1 20 5 3 6 12 8 20 5 7 -3
16 -1 19 5 4 5 12 9 18 8 7 -1 25 3 41 10 16 6 31 9 34 6 3 -2 11 0 19 6 7 6
13 8 13 4 0 -4 6 -3 13 2 11 10 132 52 160 57 7 1 21 7 32 13 16 8 83 33 105
38 8 2 125 57 222 104 48 23 89 41 90 39 2 -2 10 3 18 10 8 7 74 47 145 90
273 162 474 319 705 551 180 180 321 352 449 548 50 76 94 143 98 148 5 6 28
48 52 95 24 47 50 92 57 101 8 8 14 20 14 26 0 5 19 48 42 94 23 46 42 89 44
95 1 6 12 33 24 60 13 27 25 57 27 67 1 10 8 28 15 40 7 12 13 27 14 34 5 28
47 149 57 160 5 7 6 13 2 13 -4 0 -2 6 4 13 6 8 8 16 6 19 -3 3 0 18 6 34 7
16 11 34 10 41 -1 6 3 14 8 18 6 3 8 12 5 19 -3 8 -1 17 5 20 6 4 8 13 5 20
-3 8 -1 17 5 20 6 4 8 13 5 20 -3 8 -1 17 5 20 6 4 8 13 5 20 -3 8 0 17 6 21
6 4 8 15 5 25 -3 10 -1 21 5 25 6 4 8 15 5 25 -3 10 -1 21 5 25 6 4 8 15 5 26
-4 10 -3 24 2 31 4 7 9 24 10 38 1 14 4 43 7 65 16 115 20 155 32 335 11 165
9 259 -12 505 -4 50 -10 96 -20 170 -3 22 -7 51 -8 65 -2 14 -6 33 -10 42 -4
9 -5 22 -1 28 4 6 1 17 -5 25 -6 8 -9 19 -5 25 4 6 1 17 -5 25 -6 8 -9 19 -5
25 4 6 1 17 -5 25 -6 8 -9 19 -6 24 4 5 1 13 -5 16 -5 4 -8 13 -5 21 3 7 1 16
-5 20 -6 3 -8 12 -5 20 3 7 1 16 -5 20 -6 3 -8 12 -5 20 3 7 1 16 -5 19 -5 4
-9 12 -8 18 1 7 -3 25 -10 41 -6 16 -9 31 -6 34 2 3 0 11 -6 19 -6 7 -8 13 -4
13 4 0 3 6 -2 13 -10 11 -52 132 -57 160 -1 7 -7 22 -14 34 -7 12 -14 30 -15
40 -2 10 -14 40 -27 67 -12 27 -23 54 -24 60 -2 6 -21 49 -44 95 -23 46 -42
89 -42 94 0 6 -6 18 -14 26 -7 9 -33 54 -57 101 -24 47 -47 89 -52 95 -4 5
-48 72 -98 148 -128 196 -269 368 -449 548 -231 232 -432 389 -705 551 -71 43
-137 83 -145 90 -8 7 -17 12 -20 11 -3 -1 -43 16 -90 39 -96 46 -212 101 -220
103 -22 5 -89 30 -105 38 -11 6 -25 12 -32 13 -28 5 -149 47 -160 57 -7 5 -13
6 -13 2 0 -4 -6 -2 -13 4 -8 6 -16 8 -19 6 -3 -3 -18 0 -34 6 -16 7 -34 11
-41 10 -6 -1 -14 3 -18 8 -3 6 -12 8 -19 5 -8 -3 -17 -1 -20 5 -4 6 -13 8 -20
5 -8 -3 -17 0 -21 5 -3 6 -11 9 -16 6 -5 -4 -15 -3 -21 1 -7 5 -22 9 -33 11
-37 6 -60 10 -60 13 0 3 -53 10 -82 10 -12 0 -25 5 -28 11 -4 5 -15 7 -26 4
-10 -4 -24 -3 -31 2 -7 4 -26 8 -43 10 -16 1 -50 4 -75 7 -82 10 -144 16 -215
19 -38 2 -113 7 -165 11 -52 4 -98 5 -101 2z m1141 -1388 c71 -35 143 -107
178 -178 l27 -55 0 -1975 0 -1975 -27 -55 c-36 -74 -98 -134 -177 -173 l-66
-32 -1000 0 -1000 0 -66 32 c-79 39 -140 102 -177 181 l-27 57 0 1965 0 1965
27 57 c32 69 98 142 153 170 92 48 61 47 1110 45 l990 -2 55 -27z"/>
<path d="M2659 5716 c-88 -31 -161 -107 -174 -180 -3 -17 -4 -897 -3 -1956 3
-1829 4 -1927 21 -1961 24 -47 71 -95 121 -122 l41 -22 938 -3 c626 -2 951 1
977 8 70 19 132 69 165 134 l30 60 0 1926 0 1926 -30 60 c-33 64 -95 115 -163
134 -59 16 -1877 13 -1923 -4z m1241 -179 c38 -19 55 -61 39 -98 -22 -55 -43
-59 -314 -59 -294 0 -315 6 -315 86 0 34 17 63 43 74 36 14 518 12 547 -3z
m810 -1867 l0 -1590 -1085 0 -1085 0 0 1590 0 1590 1085 0 1085 0 0 -1590z
m-992 -1726 c93 -46 138 -163 98 -258 -41 -99 -166 -151 -264 -110 -136 56
-173 222 -74 328 64 68 154 83 240 40z"/>
<path d="M2650 3665 l0 -1455 975 0 975 0 0 1455 0 1455 -975 0 -975 0 0
-1455z"/>
</g>
</svg>
